<svg xmlns="http://www.w3.org/2000/svg" viewBox="0 0 320 320">
<defs><linearGradient id="g" x1="0" y1="0" x2="1" y2="1"><stop offset="0%" stop-color="#f1ebe4"/><stop offset="100%" stop-color="#ffffff"/></linearGradient></defs>
<rect width="320" height="320" rx="48" fill="url(#g)"/>
<circle cx="160" cy="122" r="58" fill="#eab894"/>
<path d="M100 118c0-52 30-78 70-78 42 0 70 26 70 74-14-8-24-18-30-28-26 14-60 22-98 24 0 4-4 6-12 8z" fill="#2c2f38"/>
<rect x="92" y="188" width="136" height="102" rx="42" fill="#6f7a84"/>
<circle cx="138" cy="128" r="5" fill="#3b2e2b"/>
<circle cx="182" cy="128" r="5" fill="#3b2e2b"/>
<path d="M138 154c10 8 34 8 44 0" stroke="#8a4f4f" stroke-width="6" fill="none" stroke-linecap="round"/>
<path d="M104 222c16 12 42 20 56 20 18 0 40-8 56-20" stroke="#c8972b" stroke-width="10" fill="none" stroke-linecap="round"/>
</svg>