<svg width="1800" height="1080" viewBox="0 0 1800 1080" fill="none" xmlns="http://www.w3.org/2000/svg">
<defs>
  <linearGradient id="bg" x1="0" y1="0" x2="0" y2="1">
    <stop offset="0%" stop-color="#C9D1DA"/>
    <stop offset="100%" stop-color="#AAB4C0"/>
  </linearGradient>
</defs>
<rect width="1800" height="1080" fill="url(#bg)"/>
<circle cx="1450" cy="180" r="210" fill="#D8B43D" fill-opacity="0.05"/>
<circle cx="280" cy="860" r="240" fill="#9BC45C" fill-opacity="0.04"/>
<rect y="840" width="1800" height="240" fill="#96A1AE"/>
<g opacity="0.11">
  <rect x="160" y="420" width="170" height="420" fill="#6F7B8A"/>
  <rect x="370" y="320" width="260" height="520" fill="#7A8796"/>
  <rect x="680" y="220" width="210" height="620" fill="#6E7A88"/>
  <rect x="930" y="360" width="300" height="480" fill="#7F8C9A"/>
  <rect x="1290" y="280" width="210" height="560" fill="#727E8C"/>
</g>
<g opacity="0.13">
  <rect x="520" y="90" width="18" height="640" fill="#626E7D"/>
  <rect x="530" y="90" width="470" height="18" fill="#626E7D"/>
  <path d="M970 108 L1090 172 L970 236 Z" fill="#626E7D"/>
  <rect x="730" y="108" width="12" height="300" fill="#626E7D"/>
  <path d="M736 408 L872 482 H600 Z" fill="#626E7D"/>
</g>
<g opacity="0.12">
  <path d="M1080 410 L1425 410 L1510 545 L995 545 Z" fill="#8E99A6"/>
  <path d="M1104 432 L1402 432 L1468 523 L1038 523 Z" fill="#6E7A89"/>
  <rect x="1185" y="545" width="170" height="240" fill="#6B7787"/>
  <rect x="1220" y="590" width="104" height="122" fill="#D7DDE4" fill-opacity="0.24"/>
</g>
<g opacity="0.06">
  <path d="M1110 492 L1144 468 L1170 482 L1203 438 L1230 456 L1210 500 Z" fill="#9BC45C"/>
  <circle cx="1164" cy="448" r="15" fill="#9BC45C"/>
  <rect x="1154" y="462" width="20" height="38" fill="#9BC45C"/>
</g>
</svg>