<svg width="1800" height="1080" viewBox="0 0 1800 1080" fill="none" xmlns="http://www.w3.org/2000/svg">
<defs>
  <linearGradient id="bg" x1="0" y1="0" x2="0" y2="1">
    <stop offset="0%" stop-color="#F4F7FA"/>
    <stop offset="100%" stop-color="#DCE7F0"/>
  </linearGradient>
  <linearGradient id="tower" x1="0" y1="0" x2="1" y2="1">
    <stop offset="0%" stop-color="#CAD9E8" stop-opacity="0.72"/>
    <stop offset="100%" stop-color="#8FAECC" stop-opacity="0.38"/>
  </linearGradient>
</defs>
<rect width="1800" height="1080" fill="url(#bg)"/>
<circle cx="1460" cy="170" r="220" fill="#D8B43D" fill-opacity="0.05"/>
<circle cx="260" cy="900" r="240" fill="#A5C95A" fill-opacity="0.04"/>

<!-- soft blueprint grid -->
<g opacity="0.10" stroke="#7C95AF" stroke-width="1">
  <path d="M0 160H1800"/>
  <path d="M0 320H1800"/>
  <path d="M0 480H1800"/>
  <path d="M0 640H1800"/>
  <path d="M0 800H1800"/>
  <path d="M240 0V1080"/>
  <path d="M520 0V1080"/>
  <path d="M800 0V1080"/>
  <path d="M1080 0V1080"/>
  <path d="M1360 0V1080"/>
  <path d="M1640 0V1080"/>
</g>

<!-- huge crane, very muted -->
<g opacity="0.16">
  <rect x="1280" y="138" width="20" height="520" fill="#556B82"/>
  <rect x="1294" y="138" width="360" height="16" fill="#556B82"/>
  <path d="M1634 154 L1738 206 L1634 258 Z" fill="#556B82"/>
  <path d="M1492 154 L1520 302" stroke="#556B82" stroke-width="4"/>
  <path d="M1602 154 L1580 302" stroke="#556B82" stroke-width="4"/>
  <path d="M1700 154 L1700 332" stroke="#556B82" stroke-width="3"/>
  <circle cx="1700" cy="340" r="18" fill="#556B82"/>
</g>

<!-- blueprint house + high-rise combination -->
<g opacity="0.20">
  <rect x="298" y="248" width="250" height="512" fill="url(#tower)"/>
  <path d="M298 248 L548 248" stroke="#6E8BA7" stroke-width="3"/>
  <path d="M326 296 H520 M326 352 H520 M326 408 H520 M326 464 H520 M326 520 H520 M326 576 H520 M326 632 H520 M326 688 H520" stroke="#6E8BA7" stroke-width="2"/>
  <path d="M362 248 V760 M424 248 V760 M486 248 V760" stroke="#6E8BA7" stroke-width="2"/>
  <rect x="534" y="460" width="220" height="300" fill="url(#tower)"/>
  <path d="M558 500 H732 M558 552 H732 M558 604 H732 M558 656 H732" stroke="#6E8BA7" stroke-width="2"/>
  <path d="M596 460 V760 M650 460 V760 M704 460 V760" stroke="#6E8BA7" stroke-width="2"/>
</g>

<!-- house on plans -->
<g opacity="0.15">
  <path d="M1050 590 L1210 476 L1374 590 V776 H1050 Z" fill="#AAB7C4"/>
  <path d="M1102 590 L1102 776 M1210 476 V776 M1320 590 V776" stroke="#6D7784" stroke-width="2"/>
  <path d="M1050 590 L1210 476 L1374 590" stroke="#6D7784" stroke-width="3"/>
  <path d="M1124 606 H1178 V670 H1124 Z" stroke="#6D7784" stroke-width="2"/>
  <path d="M1240 606 H1292 V670 H1240 Z" stroke="#6D7784" stroke-width="2"/>
  <path d="M1188 690 H1240 V776 H1188 Z" stroke="#6D7784" stroke-width="2"/>
</g>

<!-- rolled blueprints -->
<g opacity="0.18">
  <ellipse cx="976" cy="816" rx="94" ry="36" fill="#C9D4DE"/>
  <ellipse cx="1114" cy="804" rx="104" ry="40" fill="#D5DEE6"/>
  <path d="M884 650 C1032 622 1138 632 1218 662 L1172 820 C1056 796 972 794 858 824 Z" fill="#EDF2F6"/>
  <path d="M1014 640 C1160 618 1264 628 1352 658 L1298 806 C1180 786 1100 784 988 812 Z" fill="#F7FAFC"/>
  <path d="M884 650 C1032 622 1138 632 1218 662" stroke="#70879F" stroke-width="2"/>
  <path d="M1014 640 C1160 618 1264 628 1352 658" stroke="#70879F" stroke-width="2"/>
</g>

<!-- technical lines and marks -->
<g opacity="0.14" stroke="#6E8BA7" stroke-width="2" fill="none">
  <path d="M182 836 C384 740 584 758 830 810"/>
  <path d="M198 884 C416 786 620 802 866 854"/>
  <path d="M248 360 C344 300 498 276 650 310"/>
  <path d="M840 300 C1042 256 1248 278 1434 354"/>
  <circle cx="730" cy="286" r="34"/>
  <circle cx="822" cy="762" r="22"/>
  <circle cx="1480" cy="510" r="28"/>
</g>

<!-- soft accents -->
<g opacity="0.10" fill="#D8B43D">
  <rect x="342" y="276" width="162" height="14" rx="7"/>
  <rect x="566" y="486" width="138" height="14" rx="7"/>
  <rect x="1294" y="176" width="126" height="14" rx="7"/>
</g>
</svg>