<svg xmlns="http://www.w3.org/2000/svg" width="640" height="520" viewBox="0 0 540 420">
<defs>
<linearGradient id="bg" x1="0" x2="1">
<stop offset="0" stop-color="#f7f7f3"/><stop offset="1" stop-color="#ece8de"/>
</linearGradient>
</defs>
<rect width="540" height="420" fill="url(#bg)"/>
<circle cx="470" cy="62" r="88" fill="#d3a443" opacity=".12"/>
<circle cx="74" cy="352" r="100" fill="#24313f" opacity=".07"/>
<rect x="70" y="114" width="34" height="184" rx="10" fill="#d3a443"/><rect x="124" y="114" width="34" height="184" rx="10" fill="#314354"/><rect x="178" y="114" width="34" height="184" rx="10" fill="#d3a443"/><rect x="232" y="114" width="34" height="184" rx="10" fill="#314354"/><rect x="286" y="114" width="34" height="184" rx="10" fill="#d3a443"/><rect x="340" y="114" width="34" height="184" rx="10" fill="#314354"/><rect x="394" y="114" width="34" height="184" rx="10" fill="#d3a443"/><path d="M72 162h310M72 256h310" stroke="#20303f" stroke-width="12" stroke-linecap="round"/>
<rect x="32" y="28" width="180" height="48" rx="18" fill="rgba(255,255,255,.78)"/>
<text x="52" y="60" fill="#24313f" font-size="28" font-family="Arial" font-weight="700">ЗАБОРЫ</text>
</svg>