<svg xmlns="http://www.w3.org/2000/svg" width="640" height="520" viewBox="0 0 540 420">
<defs>
<linearGradient id="bg" x1="0" x2="1">
<stop offset="0" stop-color="#f7f7f3"/><stop offset="1" stop-color="#ece8de"/>
</linearGradient>
</defs>
<rect width="540" height="420" fill="url(#bg)"/>
<circle cx="470" cy="62" r="88" fill="#ce9e36" opacity=".12"/>
<circle cx="74" cy="352" r="100" fill="#243241" opacity=".07"/>
<rect x="60" y="90" width="94" height="54" rx="10" fill="#ce9e36"/><rect x="168" y="90" width="94" height="54" rx="10" fill="#314354"/><rect x="276" y="90" width="94" height="54" rx="10" fill="#ce9e36"/><rect x="384" y="90" width="94" height="54" rx="10" fill="#314354"/><rect x="60" y="154" width="94" height="54" rx="10" fill="#314354"/><rect x="168" y="154" width="94" height="54" rx="10" fill="#ce9e36"/><rect x="276" y="154" width="94" height="54" rx="10" fill="#314354"/><rect x="384" y="154" width="94" height="54" rx="10" fill="#ce9e36"/><rect x="60" y="218" width="94" height="54" rx="10" fill="#ce9e36"/><rect x="168" y="218" width="94" height="54" rx="10" fill="#314354"/><rect x="276" y="218" width="94" height="54" rx="10" fill="#ce9e36"/><rect x="384" y="218" width="94" height="54" rx="10" fill="#314354"/>
<rect x="32" y="28" width="180" height="48" rx="18" fill="rgba(255,255,255,.78)"/>
<text x="52" y="60" fill="#243241" font-size="28" font-family="Arial" font-weight="700">КЛАДКА</text>
</svg>