<svg xmlns="http://www.w3.org/2000/svg" width="400" height="400" viewBox="0 0 400 400">
<rect width="400" height="400" fill="#e6e2d9"/>
<circle cx="200" cy="152" r="80" fill="#e6c4ab"/>
<path d="M118 138c5-58 41-98 89-98 58 0 93 30 108 85-23-15-51-27-98-25-33 1-58 13-99 38Z" fill="#8f7e6f"/>
<rect x="130" y="226" width="140" height="106" rx="48" fill="#634f3f"/>
<circle cx="168" cy="156" r="7" fill="#2b3138"/><circle cx="232" cy="156" r="7" fill="#2b3138"/>
<path d="M171 195c13 9 44 9 57 0" stroke="#b56463" stroke-width="7" stroke-linecap="round" fill="none"/>
<path d="M145 182c6 37 28 66 57 66s50-23 58-63c-24 20-82 24-115-3Z" fill="#9e785a" opacity=".75"/></svg>