<svg xmlns="http://www.w3.org/2000/svg" width="400" height="400" viewBox="0 0 400 400">
<rect width="400" height="400" fill="#e8eef5"/>
<circle cx="200" cy="155" r="82" fill="#f1d0b8"/>
<path d="M112 148c4-62 48-104 102-104 44 0 92 28 101 91-20-23-39-32-70-34-43-3-86 17-133 47Z" fill="#e6c38f"/>
<path d="M82 161c16-52 65-93 125-93 70 0 124 48 128 109-17-25-34-42-52-54-17-12-33-16-64-16-40 0-77 20-137 54Z" fill="#e6c38f" opacity=".95"/>
<circle cx="168" cy="153" r="7" fill="#2b3138"/><circle cx="234" cy="153" r="7" fill="#2b3138"/>
<path d="M169 198c15 12 47 12 62 0" stroke="#b56463" stroke-width="7" stroke-linecap="round" fill="none"/>
<path d="M97 324c14-65 53-96 103-96 57 0 91 29 105 96" fill="#7b5c45"/>
</svg>