<svg xmlns="http://www.w3.org/2000/svg" viewBox="0 0 1200 900">
<defs>
  <linearGradient id="bg" x1="0" y1="0" x2="1" y2="1">
    <stop offset="0%" stop-color="#f4efe5"/>
    <stop offset="100%" stop-color="#d9d0c2"/>
  </linearGradient>
  <filter id="shadow" x="-20%" y="-20%" width="140%" height="140%">
    <feDropShadow dx="0" dy="18" stdDeviation="22" flood-color="#000" flood-opacity="0.18"/>
  </filter>
</defs>
<rect width="1200" height="900" fill="url(#bg)"/>
<g opacity="0.15" stroke="#fff" fill="none">
  <path d="M60 120h240v110H60zM340 120h160v110H340zM540 120h280v110H540zM860 120h280v110H860z"/>
  <path d="M60 270h130v90H60zM220 270h210v90H220zM460 270h210v90H460zM700 270h150v90H700zM880 270h260v90H880z"/>
</g>

<rect y="560" width="1200" height="180" fill="#8e7650"/>
<rect y="620" width="1200" height="120" fill="#6b583d"/>
<g filter="url(#shadow)">
  <rect x="190" y="340" width="820" height="210" rx="18" fill="#d8dce1"/>
  <rect x="215" y="365" width="770" height="160" rx="12" fill="#f5f6f7"/>
  <path d="M245 390h710" stroke="#c8972b" stroke-width="8" stroke-dasharray="14 18"/>
  <path d="M245 430h710" stroke="#1d2630" stroke-width="8" stroke-dasharray="14 18"/>
  <path d="M245 470h710" stroke="#c8972b" stroke-width="8" stroke-dasharray="14 18"/>
</g>
<g>
  <circle cx="290" cy="300" r="44" fill="#f0b400"/>
  <rect x="250" y="340" width="80" height="140" rx="20" fill="#202935"/>
  <rect x="232" y="470" width="30" height="90" rx="12" fill="#202935"/>
  <rect x="308" y="470" width="30" height="90" rx="12" fill="#202935"/>
  <rect x="330" y="375" width="120" height="18" rx="9" fill="#9e7216" transform="rotate(18 330 375)"/>
</g>
<g>
  <circle cx="920" cy="280" r="40" fill="#f0b400"/>
  <rect x="882" y="318" width="76" height="130" rx="20" fill="#202935"/>
  <rect x="868" y="440" width="28" height="110" rx="12" fill="#202935"/>
  <rect x="944" y="440" width="28" height="110" rx="12" fill="#202935"/>
</g>

<rect x="48" y="700" width="1104" height="152" rx="28" fill="rgba(255,255,255,0.82)"/>
<text x="88" y="770" font-family="Arial, sans-serif" font-size="52" font-weight="700" fill="#18212b">Фундаменты и монолит</text>
<text x="88" y="815" font-family="Arial, sans-serif" font-size="28" fill="#5f6772">Основание, армирование, бетонные работы</text>
</svg>