<svg xmlns="http://www.w3.org/2000/svg" viewBox="0 0 1200 900">
<defs>
  <linearGradient id="bg" x1="0" y1="0" x2="1" y2="1">
    <stop offset="0%" stop-color="#f2eee7"/>
    <stop offset="100%" stop-color="#d7cec3"/>
  </linearGradient>
  <filter id="shadow" x="-20%" y="-20%" width="140%" height="140%">
    <feDropShadow dx="0" dy="18" stdDeviation="22" flood-color="#000" flood-opacity="0.18"/>
  </filter>
</defs>
<rect width="1200" height="900" fill="url(#bg)"/>
<g opacity="0.15" stroke="#fff" fill="none">
  <path d="M60 120h240v110H60zM340 120h160v110H340zM540 120h280v110H540zM860 120h280v110H860z"/>
  <path d="M60 270h130v90H60zM220 270h210v90H220zM460 270h210v90H460zM700 270h150v90H700zM880 270h260v90H880z"/>
</g>

<rect y="620" width="1200" height="120" fill="#d0b27a"/>
<rect x="130" y="160" width="940" height="470" rx="28" fill="#fffefb" filter="url(#shadow)"/>
<rect x="180" y="220" width="280" height="360" rx="18" fill="#e9ecef"/>
<rect x="500" y="220" width="520" height="160" rx="18" fill="#e3e7ea"/>
<rect x="500" y="420" width="230" height="160" rx="18" fill="#d8dde2"/>
<rect x="760" y="420" width="260" height="160" rx="18" fill="#cdd4db"/>
<path d="M130 600h940" stroke="#c8972b" stroke-width="14"/>
<g>
  <circle cx="210" cy="160" r="34" fill="#f0b400"/>
  <rect x="178" y="194" width="64" height="110" rx="16" fill="#202935"/>
  <rect x="240" y="248" width="130" height="16" rx="8" fill="#18212b" transform="rotate(20 240 248)"/>
</g>

<rect x="48" y="700" width="1104" height="152" rx="28" fill="rgba(255,255,255,0.82)"/>
<text x="88" y="770" font-family="Arial, sans-serif" font-size="52" font-weight="700" fill="#18212b">Отделка</text>
<text x="88" y="815" font-family="Arial, sans-serif" font-size="28" fill="#5f6772">Черновая и чистовая отделка под ключ</text>
</svg>