<svg xmlns="http://www.w3.org/2000/svg" viewBox="0 0 1200 900">
<defs>
  <linearGradient id="bg" x1="0" y1="0" x2="1" y2="1">
    <stop offset="0%" stop-color="#edf3ee"/>
    <stop offset="100%" stop-color="#d7dfd5"/>
  </linearGradient>
  <filter id="shadow" x="-20%" y="-20%" width="140%" height="140%">
    <feDropShadow dx="0" dy="18" stdDeviation="22" flood-color="#000" flood-opacity="0.18"/>
  </filter>
</defs>
<rect width="1200" height="900" fill="url(#bg)"/>
<g opacity="0.15" stroke="#fff" fill="none">
  <path d="M60 120h240v110H60zM340 120h160v110H340zM540 120h280v110H540zM860 120h280v110H860z"/>
  <path d="M60 270h130v90H60zM220 270h210v90H220zM460 270h210v90H460zM700 270h150v90H700zM880 270h260v90H880z"/>
</g>

<rect y="520" width="1200" height="220" fill="#8fa26a"/>
<path d="M0 500c180-60 310-60 480 0s310 60 720 0v240H0z" fill="#aebd87"/>
<g filter="url(#shadow)">
  <rect x="130" y="280" width="940" height="210" rx="18" fill="#18212b"/>
  <g fill="#d6dce1">
    <rect x="180" y="210" width="20" height="280" rx="10"/>
    <rect x="300" y="210" width="20" height="280" rx="10"/>
    <rect x="420" y="210" width="20" height="280" rx="10"/>
    <rect x="540" y="210" width="20" height="280" rx="10"/>
    <rect x="660" y="210" width="20" height="280" rx="10"/>
    <rect x="780" y="210" width="20" height="280" rx="10"/>
    <rect x="900" y="210" width="20" height="280" rx="10"/>
  </g>
</g>
<g fill="#c8972b">
  <rect x="220" y="580" width="120" height="40" rx="10"/>
  <rect x="360" y="580" width="120" height="40" rx="10"/>
  <rect x="500" y="580" width="120" height="40" rx="10"/>
  <rect x="640" y="580" width="120" height="40" rx="10"/>
  <rect x="780" y="580" width="120" height="40" rx="10"/>
</g>

<rect x="48" y="700" width="1104" height="152" rx="28" fill="rgba(255,255,255,0.82)"/>
<text x="88" y="770" font-family="Arial, sans-serif" font-size="52" font-weight="700" fill="#18212b">Благоустройство</text>
<text x="88" y="815" font-family="Arial, sans-serif" font-size="28" fill="#5f6772">Заборы, ворота, брусчатка, участок</text>
</svg>