<svg xmlns="http://www.w3.org/2000/svg" viewBox="0 0 1200 900">
<defs>
  <linearGradient id="bg" x1="0" y1="0" x2="1" y2="1">
    <stop offset="0%" stop-color="#eaf2f6"/>
    <stop offset="100%" stop-color="#c8d8e3"/>
  </linearGradient>
  <filter id="shadow" x="-20%" y="-20%" width="140%" height="140%">
    <feDropShadow dx="0" dy="18" stdDeviation="22" flood-color="#000" flood-opacity="0.18"/>
  </filter>
</defs>
<rect width="1200" height="900" fill="url(#bg)"/>
<g opacity="0.15" stroke="#fff" fill="none">
  <path d="M60 120h240v110H60zM340 120h160v110H340zM540 120h280v110H540zM860 120h280v110H860z"/>
  <path d="M60 270h130v90H60zM220 270h210v90H220zM460 270h210v90H460zM700 270h150v90H700zM880 270h260v90H880z"/>
</g>

<rect y="580" width="1200" height="160" fill="#d7d0bf"/>
<rect x="220" y="320" width="720" height="250" rx="24" fill="#f6f6f6" filter="url(#shadow)"/>
<path d="M180 360 600 120 1020 360" fill="#18212b"/>
<path d="M260 360 600 160 940 360" fill="#c8972b"/>
<path d="M220 320h720v250" fill="none" stroke="#d9dde0" stroke-width="14"/>
<path d="M330 360v210M470 360v210M610 360v210M750 360v210M890 360v210" stroke="#d1d6db" stroke-width="8"/>
<g>
  <circle cx="420" cy="280" r="32" fill="#f0b400"/>
  <rect x="390" y="310" width="60" height="96" rx="16" fill="#202935"/>
</g>
<g>
  <circle cx="760" cy="260" r="32" fill="#f0b400"/>
  <rect x="730" y="290" width="60" height="96" rx="16" fill="#202935"/>
</g>

<rect x="48" y="700" width="1104" height="152" rx="28" fill="rgba(255,255,255,0.82)"/>
<text x="88" y="770" font-family="Arial, sans-serif" font-size="52" font-weight="700" fill="#18212b">Кровля</text>
<text x="88" y="815" font-family="Arial, sans-serif" font-size="28" fill="#5f6772">Стропильная система, металлочерепица, гибкая кровля</text>
</svg>