<svg xmlns="http://www.w3.org/2000/svg" viewBox="0 0 32 32"><circle cx="16" cy="16" r="16" fill="#25D366"/><path fill="#fff" d="M19.11 17.21c-.29-.15-1.72-.85-1.99-.95-.27-.1-.46-.15-.65.15-.19.29-.75.95-.92 1.15-.17.19-.34.22-.63.07-.29-.15-1.22-.45-2.33-1.44-.86-.77-1.44-1.73-1.61-2.03-.17-.29-.02-.45.13-.59.13-.12.29-.32.44-.49.15-.17.2-.29.29-.49.1-.19.05-.37-.02-.52-.07-.15-.65-1.57-.9-2.15-.23-.56-.47-.49-.65-.5h-.55c-.19 0-.49.07-.75.37-.26.29-.98.96-.98 2.35 0 1.39 1.01 2.73 1.15 2.91.15.19 1.98 3.02 4.8 4.24.67.29 1.19.47 1.6.6.67.21 1.28.18 1.76.11.54-.08 1.72-.7 1.96-1.38.24-.68.24-1.26.17-1.38-.07-.12-.27-.19-.56-.34Z"/></svg>